<?xml version="1.0" ?><svg viewBox="0 0 480 480" xmlns="http://www.w3.org/2000/svg" xmlns:xlink="http://www.w3.org/1999/xlink"><defs><linearGradient gradientUnits="userSpaceOnUse" id="linear-gradient" x1="-5.657" x2="261.657" y1="309.657" y2="42.343"><stop offset="0" stop-color="#d1cdc7"/><stop offset="0.539" stop-color="#d7d4cf"/><stop offset="1" stop-color="#e0deda"/></linearGradient></defs><g data-name="07-healthy" id="_07-healthy"><g id="flat"><path d="M279.971,127.422A8.015,8.015,0,0,0,278.4,123.2l-48-64a8,8,0,0,0-12.8,0l-48,64A8.129,8.129,0,0,0,168,128V336a8,8,0,0,0,8,8h96a8,8,0,0,0,8-8V128C280,127.805,279.985,127.614,279.971,127.422Z" style="fill:#e8e6e3"/><path d="M231.013,67.849A8.2,8.2,0,0,0,232,64V16a8,8,0,0,0-8-8H80a8,8,0,0,0-8,8V64L25.6,123.2A8.129,8.129,0,0,0,24,128V336a8,8,0,0,0,8,8H176a8,8,0,0,0,8-8V128l46.4-59.2C230.611,68.488,230.831,68.182,231.013,67.849Z" style="fill:url(#linear-gradient)"/><path d="M64,336V128a8.129,8.129,0,0,1,1.6-4.8L112,64V16a8,8,0,0,1,8-8H80a8,8,0,0,0-8,8V64L25.6,123.2A8.129,8.129,0,0,0,24,128V336a8,8,0,0,0,8,8H72A8,8,0,0,1,64,336Z" style="fill:#d1cdc7"/><path d="M231.013,67.849A8.2,8.2,0,0,0,232,64H72L25.6,123.2A8.129,8.129,0,0,0,24,128H184l46.4-59.2C230.611,68.488,230.831,68.182,231.013,67.849Z" style="fill:#f0eeec"/><path d="M112,64H72L25.6,123.2A8.129,8.129,0,0,0,24,128H64a8.129,8.129,0,0,1,1.6-4.8Z" style="fill:#e8e6e3"/><path d="M224,8H80a8,8,0,0,0-8,8V64H232V16A8,8,0,0,0,224,8Z" style="fill:#4890df"/><path d="M120,8H80a8,8,0,0,0-8,8V64h40V16A8,8,0,0,1,120,8Z" style="fill:#3182db"/><path d="M24,192V336a8,8,0,0,0,8,8H176a8,8,0,0,0,8-8V160H24Z" style="fill:#a3c7ef"/><path d="M64,336V160H24V336a8,8,0,0,0,8,8H72A8,8,0,0,1,64,336Z" style="fill:#76ace7"/><path d="M420.216,181.472C402.769,173.087,374.244,169.449,336,197.9c-38.244-28.447-66.768-24.809-84.216-16.423C216.012,198.665,200,247.363,200,288c0,43.5,23.129,87.022,57.555,108.3,24.9,15.391,52.611,17.422,78.445,5.857a82.234,82.234,0,0,0,33.745,7.4c15.234,0,30.429-4.433,44.7-13.253C448.871,375.022,472,331.5,472,288,472,247.363,455.988,198.665,420.216,181.472Z" style="fill:#ee7c80"/><path d="M409.745,394.116A82.234,82.234,0,0,1,376,386.72c-25.834,11.565-53.544,9.534-78.445-5.857C263.129,359.587,240,316.065,240,272.565c0-34.715,11.7-75.3,37.4-97.11a61.087,61.087,0,0,0-25.62,6.017C216.012,198.665,200,247.363,200,288c0,43.5,23.129,87.022,57.555,108.3,24.9,15.391,52.611,17.422,78.445,5.857a82.234,82.234,0,0,0,33.745,7.4c15.234,0,30.429-4.433,44.7-13.253,1.381-.853,2.736-1.755,4.079-2.678A78.639,78.639,0,0,1,409.745,394.116Z" style="fill:#ea5b60"/><path d="M343.428,242.971l-14.856-5.942c15.265-38.164,7.155-60.418-.689-81.939-7.954-21.823-16.178-44.388.962-78.668l14.31,7.156c-14.058,28.117-7.96,44.849-.239,66.033C351.375,172.822,360.964,199.131,343.428,242.971Z" style="fill:#665946"/><path d="M336,248a40.146,40.146,0,0,1-34.644-19.994l13.85-8.012a24.01,24.01,0,0,0,41.588,0l13.85,8.012A40.146,40.146,0,0,1,336,248Z" style="fill:#ea5b60"/><path d="M414.341,123.993a39.992,39.992,0,0,0-69.265,0,8,8,0,0,0,0,8.014,39.992,39.992,0,0,0,69.265,0A8,8,0,0,0,414.341,123.993Z" style="fill:#c1d776"/><path d="M152.488,342.229a321.769,321.769,0,0,0-8.3-45.244c-8.675-32.832-21-51.777-36.633-56.307-17.54-5.084-34.032-.43-42.012,11.858-3.9,6.008-9.961,20.888,3.184,44.462a108.809,108.809,0,0,0-18.8-1.9h-.3c-27.1,0-36.811,13.815-40.176,25.428-3.379,11.658-2.547,28.6,20.608,43.134a108.6,108.6,0,0,0,16.9,8.444c-23.713,12.892-26.552,28.7-26.467,35.869.175,14.651,11.621,27.4,29.16,32.486a28.668,28.668,0,0,0,8.017,1.1c14.415,0,32.211-9.751,53.049-29.1a321.652,321.652,0,0,0,31.209-33.793,7.994,7.994,0,0,0,1.376-2.694l8.908-30.736A7.985,7.985,0,0,0,152.488,342.229Z" style="fill:#acc949"/><path d="M150.314,326.226,143.3,350.417a7.985,7.985,0,0,1-1.376,2.694A321.54,321.54,0,0,1,110.717,386.9C89.879,406.249,72.083,416,57.668,416a28.668,28.668,0,0,1-8.017-1.105c-12.352-3.58-21.675-10.966-26.174-20.137a30.585,30.585,0,0,0-2.986,13.212c.175,14.651,11.621,27.4,29.16,32.486a28.668,28.668,0,0,0,8.017,1.1c14.415,0,32.211-9.751,53.049-29.1a321.652,321.652,0,0,0,31.209-33.793,7.994,7.994,0,0,0,1.376-2.694l8.908-30.736a7.985,7.985,0,0,0,.278-3.013C152.441,341.75,151.807,335.458,150.314,326.226Z" style="fill:#86b817"/><path d="M431.666,410.773c-14.058-11.531-34.909-25.114-60.3-39.281-45.468-25.367-102-50.6-134.411-59.993-33.725-9.775-54.9-10.976-70.8-4.014-15.779,6.908-25.876,21.463-33.762,48.671s-7.138,44.907,2.5,59.181c9.714,14.386,28.249,24.695,61.975,34.47,32.415,9.395,93.674,18.3,145.66,21.181,12.107.67,23.488,1,33.956,1a318.51,318.51,0,0,0,38-1.951c24.567-3.032,37.474-9.5,40.619-20.351S450.8,426.472,431.666,410.773Z" style="fill:#f9cc5c"/><path d="M422.684,446.049A318.522,318.522,0,0,1,384.679,448c-10.469,0-21.85-.333-33.956-1-51.986-2.878-113.245-11.786-145.66-21.181-33.726-9.775-52.261-20.084-61.976-34.469-9.064-13.423-10.263-29.878-3.818-54.415a147.668,147.668,0,0,0-6.88,19.225c-7.886,27.207-7.138,44.907,2.5,59.181,9.714,14.386,28.249,24.695,61.975,34.47,32.415,9.395,93.674,18.3,145.66,21.181,12.107.67,23.488,1,33.956,1a318.51,318.51,0,0,0,38-1.951c24.567-3.032,37.474-9.5,40.619-20.351A19.22,19.22,0,0,0,454.215,437C447.444,441.32,437.065,444.274,422.684,446.049Z" style="fill:#f5a83d"/><path d="M235.39,403.076l28.328-82.387c-5.289-2.025-10.324-3.855-15.041-5.463l-28.418,82.648Z" style="fill:#f5a83d"/><path d="M297.021,420.374,282.987,465.6c5.358.657,10.763,1.273,16.18,1.846L312.3,425.116Z" style="fill:#f5a83d"/><path d="M393.571,432.091l12.715-39.627q-6.6-4.311-13.982-8.8L378.336,427.2Z" style="fill:#f5a83d"/></g></g></svg>